<svg width="295.777222" height="295.777161" viewBox="0 0 295.777 295.777" fill="none" xmlns="http://www.w3.org/2000/svg" xmlns:xlink="http://www.w3.org/1999/xlink">
	<desc>
			Created with Pixso.
	</desc>
	<defs>
		<filter id="filter_1_185_dd" x="19.027222" y="23.274338" width="257.722778" height="249.228470" filterUnits="userSpaceOnUse" color-interpolation-filters="sRGB">
			<feFlood flood-opacity="0" result="BackgroundImageFix"/>
			<feGaussianBlur in="BackgroundImage" stdDeviation="11.3333"/>
			<feComposite in2="SourceAlpha" operator="in" result="effect_backgroundBlur_1"/>
			<feColorMatrix in="SourceAlpha" type="matrix" values="0 0 0 0 0 0 0 0 0 0 0 0 0 0 0 0 0 0 127 0" result="hardAlpha"/>
			<feOffset dx="0" dy="0"/>
			<feGaussianBlur stdDeviation="14.6667"/>
			<feComposite in2="hardAlpha" operator="out" k2="-1" k3="1"/>
			<feColorMatrix type="matrix" values="0 0 0 0 0.25098 0 0 0 0 0.86667 0 0 0 0 0.8902 0 0 0 0.42 0"/>
			<feBlend mode="normal" in2="effect_backgroundBlur_1" result="effect_dropShadow_2"/>
			<feBlend mode="normal" in="SourceGraphic" in2="effect_dropShadow_2" result="shape"/>
		</filter>
	</defs>
	<g filter="url(#filter_1_185_dd)">
		<path id="Polygon 1" d="M177.98 67.27L93.12 81.51L63.02 162.13L117.79 228.5L202.65 214.25L232.75 133.64L177.98 67.27Z" fill="#45F7FA" fill-opacity="0.310000" fill-rule="evenodd"/>
		<path id="Polygon 1" d="M93.12 81.51L63.02 162.13L117.79 228.5L202.65 214.25L232.75 133.64L177.98 67.27L93.12 81.51ZM93.85 82.4L64.16 161.94L118.19 227.42L201.92 213.36L231.61 133.83L177.58 68.35L93.85 82.4Z" fill="#40DDE3" fill-opacity="1.000000" fill-rule="evenodd"/>
	</g>
	<path id="XP" d="M105.85 152.5L104.93 154.98L112.47 157.79L125.87 150.2L131.11 164.75L138.65 167.57L139.6 165.04L132.86 146.19L150.32 136.33L151.24 133.84L143.7 131.03L130.28 138.67L125.06 124.07L117.52 121.25L116.59 123.73L123.26 142.61L105.85 152.5ZM155.98 135.67L143.41 169.34L150.67 172.06L154.8 161L174.3 168.23C175.58 168.71 176.85 168.83 178.12 168.59C179.41 168.36 180.57 167.83 181.59 167Q182.37 166.39 182.94 165.62Q183.52 164.84 183.87 163.9L187.12 155.19Q187.47 154.25 187.55 153.28Q187.62 152.33 187.43 151.36C187.2 150.06 186.67 148.9 185.85 147.88C185.05 146.87 184.01 146.13 182.73 145.65L155.98 135.67ZM176.65 160.78L157.54 153.65L160.53 145.64L179.64 152.77L176.65 160.78Z" fill="#40DDE3" fill-opacity="1.000000" fill-rule="evenodd"/>
</svg>
