<svg width="620" height="373" viewBox="0 0 620 373" fill="none" xmlns="http://www.w3.org/2000/svg">
<g filter="url(#filter0_d_1_14)">
<path d="M273.171 355.587V356.587H274.171V355.587H273.171ZM273.171 22.0898V21.0898H272.171V22.0898H273.171ZM593.299 22.0898C593.299 25.0354 595.687 27.4232 598.632 27.4232C601.578 27.4232 603.966 25.0354 603.966 22.0898C603.966 19.1443 601.578 16.7565 598.632 16.7565C595.687 16.7565 593.299 19.1443 593.299 22.0898ZM-1.39453 355.587V356.587H273.171V355.587V354.587H-1.39453V355.587ZM273.171 355.587H274.171V22.0898H273.171H272.171V355.587H273.171ZM273.171 22.0898V23.0898H598.632V22.0898V21.0898H273.171V22.0898Z" fill="#40DDE3"/>
</g>
<defs>
<filter id="filter0_d_1_14" x="-17.3945" y="0.7565" width="637.36" height="371.83" filterUnits="userSpaceOnUse" color-interpolation-filters="sRGB">
<feFlood flood-opacity="0" result="BackgroundImageFix"/>
<feColorMatrix in="SourceAlpha" type="matrix" values="0 0 0 0 0 0 0 0 0 0 0 0 0 0 0 0 0 0 127 0" result="hardAlpha"/>
<feOffset/>
<feGaussianBlur stdDeviation="8"/>
<feComposite in2="hardAlpha" operator="out"/>
<feColorMatrix type="matrix" values="0 0 0 0 0.270588 0 0 0 0 0.968627 0 0 0 0 0.980392 0 0 0 1 0"/>
<feBlend mode="normal" in2="BackgroundImageFix" result="effect1_dropShadow_1_14"/>
<feBlend mode="normal" in="SourceGraphic" in2="effect1_dropShadow_1_14" result="shape"/>
</filter>
</defs>
</svg>
